<mxfile host="app.diagrams.net" agent="Mozilla/5.0 (Macintosh; Intel Mac OS X 10_15_7) AppleWebKit/605.1.15 (KHTML, like Gecko) Version/18.1 Safari/605.1.15" version="28.1.0">
  <diagram name="第 1 页" id="bq3pLO5UZesDkW54nXpK">
    <mxGraphModel dx="1503" dy="799" grid="1" gridSize="10" guides="1" tooltips="1" connect="1" arrows="1" fold="1" page="1" pageScale="1" pageWidth="827" pageHeight="1169" math="1" shadow="0">
      <root>
        <mxCell id="0" />
        <mxCell id="1" parent="0" />
        <UserObject label="&lt;div&gt;&lt;font style=&quot;font-family: &amp;quot;Times New Roman&amp;quot;; direction: ltr; letter-spacing: 0px; line-height: 120%; opacity: 1; font-size: 24px; color: light-dark(rgb(255, 38, 0), rgb(237, 237, 237));&quot;&gt;&lt;b&gt;Communication Network&lt;/b&gt;&lt;/font&gt;&lt;font style=&quot;font-size: 22.58px; font-family: &amp;quot;Times New Roman&amp;quot;; color: rgb(0, 0, 0); direction: ltr; letter-spacing: 0px; line-height: 120%; opacity: 1;&quot;&gt;&lt;br&gt;&lt;/font&gt;&lt;/div&gt;" tags="流程图" id="kzMcMaSELKgusBH4qg8a-270">
          <mxCell style="verticalAlign=middle;align=center;overflow=width;vsdxID=235;rotation=0;fillColor=#eeeeee;shape=stencil(nZBLDoAgDERP0z3SIyjew0SURgSD+Lu9kMZoXLhwN9O+tukAlrNpJg1SzDH4QW/URgNYgZTkjA4UkwJUgGXng+6DX1zLfmoymdXo17xh5zmRJ6Q42BWCfc2oJfdAr+Yv+AP9Cb7OJ3H/2JG1HNGz/84klThPVCc=);strokeColor=#36393d;shadow=1;spacingTop=-1;spacingBottom=-1;spacingLeft=-1;spacingRight=-1;points=[[1,0.5,0],[0.5,0.5,0],[0.5,0,0]];labelBackgroundColor=none;rounded=0;html=1;whiteSpace=wrap;fontStyle=2" vertex="1" parent="1">
            <mxGeometry x="62.43000000000001" y="300" width="706.5" height="29" as="geometry" />
          </mxCell>
        </UserObject>
        <UserObject label="" tags="连接线" id="kzMcMaSELKgusBH4qg8a-271">
          <mxCell style="vsdxID=374;edgeStyle=none;startArrow=none;endArrow=block;startSize=5;endSize=5;strokeWidth=3;strokeColor=#0070c0;spacingTop=0;spacingBottom=0;spacingLeft=0;spacingRight=0;verticalAlign=middle;html=1;labelBackgroundColor=#FFFFFF;rounded=0;entryX=0.5;entryY=0;entryDx=0;entryDy=0;" edge="1" parent="1" target="kzMcMaSELKgusBH4qg8a-278">
            <mxGeometry relative="1" as="geometry">
              <mxPoint x="-1" as="offset" />
              <Array as="points" />
              <mxPoint x="148.93" y="330" as="sourcePoint" />
              <mxPoint x="206.18" y="390" as="targetPoint" />
            </mxGeometry>
          </mxCell>
        </UserObject>
        <mxCell id="kzMcMaSELKgusBH4qg8a-272" value="&lt;div style=&quot;text-align: center;&quot;&gt;&lt;font face=&quot;Times New Roman&quot;&gt;&lt;span style=&quot;caret-color: rgb(237, 12, 12);&quot;&gt;Waypoints&lt;/span&gt;&lt;/font&gt;&lt;/div&gt;" style="text;whiteSpace=wrap;html=1;fontSize=20;fontStyle=2;fontColor=#000000;" vertex="1" parent="1">
          <mxGeometry x="59" y="340" width="87.75" height="30" as="geometry" />
        </mxCell>
        <mxCell id="kzMcMaSELKgusBH4qg8a-273" value="&lt;span style=&quot;caret-color: rgb(237, 12, 12); color: rgb(0, 0, 0); font-family: &amp;quot;Times New Roman&amp;quot;; font-style: normal; font-variant-caps: normal; font-weight: 400; letter-spacing: normal; text-align: center; text-indent: 0px; text-transform: none; white-space: normal; word-spacing: 0px; -webkit-text-stroke-width: 0px; text-decoration: none; float: none; display: inline !important;&quot;&gt;&lt;font&gt;[\(P_1\),...&lt;/font&gt;&lt;/span&gt;&lt;span style=&quot;caret-color: rgb(237, 12, 12); font-family: &amp;quot;Times New Roman&amp;quot;; text-align: center; float: none; color: rgb(0, 0, 0); display: inline !important;&quot;&gt;,&lt;/span&gt;&lt;span style=&quot;caret-color: rgb(237, 12, 12); font-family: &amp;quot;Times New Roman&amp;quot;; text-align: center;&quot;&gt;\(P_m\)]&lt;/span&gt;" style="text;whiteSpace=wrap;html=1;fontSize=20;" vertex="1" parent="1">
          <mxGeometry x="156.87" y="340" width="97.38" height="30" as="geometry" />
        </mxCell>
        <mxCell id="kzMcMaSELKgusBH4qg8a-275" value="&lt;span style=&quot;caret-color: rgb(237, 12, 12); color: rgb(0, 0, 0); font-family: &amp;quot;Times New Roman&amp;quot;; font-style: normal; font-variant-caps: normal; font-weight: 400; letter-spacing: normal; text-align: center; text-indent: 0px; text-transform: none; white-space: normal; word-spacing: 0px; -webkit-text-stroke-width: 0px; text-decoration: none; float: none; display: inline !important;&quot;&gt;&lt;font&gt;\(\nu_d^{k}\)&lt;/font&gt;&lt;/span&gt;" style="text;whiteSpace=wrap;html=1;fontSize=22;" vertex="1" parent="1">
          <mxGeometry x="246.18" y="400" width="20" height="27" as="geometry" />
        </mxCell>
        <mxCell id="kzMcMaSELKgusBH4qg8a-276" value="&lt;span style=&quot;caret-color: rgb(237, 12, 12); color: rgb(0, 0, 0); font-family: &amp;quot;Times New Roman&amp;quot;; font-style: normal; font-variant-caps: normal; font-weight: 400; letter-spacing: normal; text-align: center; text-indent: 0px; text-transform: none; white-space: normal; word-spacing: 0px; -webkit-text-stroke-width: 0px; text-decoration: none; float: none; display: inline !important;&quot;&gt;&lt;font&gt;\(\eta_d^{k}\)&lt;/font&gt;&lt;/span&gt;" style="text;whiteSpace=wrap;html=1;fontSize=22;" vertex="1" parent="1">
          <mxGeometry x="246.18" y="435" width="20" height="40" as="geometry" />
        </mxCell>
        <UserObject label="" tags="连接线" id="kzMcMaSELKgusBH4qg8a-277">
          <mxCell style="vsdxID=250;edgeStyle=none;startArrow=none;endArrow=block;startSize=5;endSize=5;strokeWidth=3;strokeColor=#0070c0;spacingTop=0;spacingBottom=0;spacingLeft=0;spacingRight=0;verticalAlign=middle;html=1;labelBackgroundColor=#ffffff;rounded=0;exitX=1;exitY=0.5;exitDx=0;exitDy=0;entryX=0;entryY=0.5;entryDx=0;entryDy=0;" edge="1" parent="1" target="kzMcMaSELKgusBH4qg8a-279" source="kzMcMaSELKgusBH4qg8a-278">
            <mxGeometry relative="1" as="geometry">
              <Array as="points" />
              <mxPoint x="128.61633774776215" y="621.5" as="sourcePoint" />
              <mxPoint x="288.93" y="445" as="targetPoint" />
            </mxGeometry>
          </mxCell>
        </UserObject>
        <mxCell id="kzMcMaSELKgusBH4qg8a-278" value="&lt;font style=&quot;font-size: 24px;&quot;&gt;&lt;i style=&quot;color: light-dark(rgb(255, 38, 0), rgb(237, 237, 237));&quot;&gt;SN-PGV&lt;/i&gt;&lt;/font&gt;&lt;div&gt;&lt;font style=&quot;font-size: 24px;&quot;&gt;&lt;i style=&quot;color: light-dark(rgb(255, 38, 0), rgb(237, 237, 237));&quot;&gt;(Section 3)&lt;/i&gt;&lt;/font&gt;&lt;/div&gt;" style="rounded=1;whiteSpace=wrap;html=1;fillColor=#cce5ff;strokeColor=#36393d;" vertex="1" parent="1">
          <mxGeometry x="66.43" y="409.76" width="163.63" height="60" as="geometry" />
        </mxCell>
        <mxCell id="kzMcMaSELKgusBH4qg8a-279" value="&lt;font size=&quot;5&quot; color=&quot;rgb(255, 38, 0)&quot;&gt;&lt;span style=&quot;caret-color: rgb(255, 38, 0);&quot;&gt;&lt;i&gt;FTSA-LOS&lt;/i&gt;&lt;/span&gt;&lt;/font&gt;&lt;br&gt;&lt;div&gt;&lt;font style=&quot;font-size: 24px;&quot;&gt;&lt;i style=&quot;color: light-dark(rgb(255, 38, 0), rgb(237, 237, 237));&quot;&gt;(Section 4)&lt;/i&gt;&lt;/font&gt;&lt;/div&gt;" style="rounded=1;whiteSpace=wrap;html=1;fillColor=#cce5ff;strokeColor=#36393d;" vertex="1" parent="1">
          <mxGeometry x="289.68" y="409.76" width="163.63" height="60" as="geometry" />
        </mxCell>
        <mxCell id="kzMcMaSELKgusBH4qg8a-280" value="&lt;span style=&quot;color: rgb(255, 51, 51);&quot;&gt;&lt;i&gt;&lt;font style=&quot;font-size: 24px;&quot;&gt;FTSA-FLS Controller&amp;nbsp;&lt;/font&gt;&lt;br&gt;&lt;/i&gt;&lt;/span&gt;&lt;div&gt;&lt;font style=&quot;font-size: 24px;&quot;&gt;&lt;i style=&quot;color: rgb(255, 51, 51);&quot;&gt;(Section 5)&lt;/i&gt;&lt;/font&gt;&lt;/div&gt;" style="rounded=1;whiteSpace=wrap;html=1;fillColor=#cce5ff;strokeColor=#36393d;" vertex="1" parent="1">
          <mxGeometry x="153.92999999999995" y="520" width="250" height="65.24" as="geometry" />
        </mxCell>
        <UserObject label="" tags="连接线" id="kzMcMaSELKgusBH4qg8a-282">
          <mxCell style="vsdxID=250;edgeStyle=none;startArrow=none;endArrow=block;startSize=5;endSize=5;strokeWidth=3;strokeColor=#0070c0;spacingTop=0;spacingBottom=0;spacingLeft=0;spacingRight=0;verticalAlign=middle;html=1;labelBackgroundColor=#ffffff;rounded=0;exitX=0.999;exitY=0.483;exitDx=0;exitDy=0;entryX=0;entryY=0.5;entryDx=0;entryDy=0;exitPerimeter=0;" edge="1" parent="1" source="kzMcMaSELKgusBH4qg8a-279" target="kzMcMaSELKgusBH4qg8a-298">
            <mxGeometry relative="1" as="geometry">
              <Array as="points" />
              <mxPoint x="453.31" y="445" as="sourcePoint" />
              <mxPoint x="538.9300000000001" y="440" as="targetPoint" />
            </mxGeometry>
          </mxCell>
        </UserObject>
        <mxCell id="kzMcMaSELKgusBH4qg8a-283" value="&lt;i style=&quot;caret-color: rgb(0, 0, 0); color: rgb(0, 0, 0); font-family: &amp;quot;Times New Roman&amp;quot;; font-size: 18px; font-variant-caps: normal; font-weight: 400; letter-spacing: normal; text-align: center; text-indent: 0px; text-transform: none; white-space: normal; word-spacing: 0px; -webkit-text-stroke-width: 0px; text-decoration: none;&quot;&gt;&lt;b&gt;&lt;span class=&quot;Apple-converted-space&quot;&gt;&amp;nbsp;&lt;/span&gt;\(x_F^i\)&lt;/b&gt;&lt;/i&gt;" style="text;whiteSpace=wrap;html=1;" vertex="1" parent="1">
          <mxGeometry x="406.43" y="330.5" width="34.5" height="32" as="geometry" />
        </mxCell>
        <mxCell id="kzMcMaSELKgusBH4qg8a-284" value="&lt;i style=&quot;caret-color: rgb(0, 0, 0); color: rgb(0, 0, 0); font-family: &amp;quot;Times New Roman&amp;quot;; font-size: 18px; font-variant-caps: normal; font-weight: 400; letter-spacing: normal; text-align: center; text-indent: 0px; text-transform: none; white-space: normal; word-spacing: 0px; -webkit-text-stroke-width: 0px; text-decoration: none;&quot;&gt;&lt;b&gt;&lt;span class=&quot;Apple-converted-space&quot;&gt;&amp;nbsp;&lt;/span&gt;\(y_F^i\)&lt;/b&gt;&lt;/i&gt;" style="text;whiteSpace=wrap;html=1;" vertex="1" parent="1">
          <mxGeometry x="373.43" y="329.5" width="38" height="40" as="geometry" />
        </mxCell>
        <mxCell id="kzMcMaSELKgusBH4qg8a-285" value="&lt;i style=&quot;caret-color: rgb(0, 0, 0); color: rgb(0, 0, 0); font-family: &amp;quot;Times New Roman&amp;quot;; font-size: 18px; font-variant-caps: normal; font-weight: 400; letter-spacing: normal; text-align: center; text-indent: 0px; text-transform: none; white-space: normal; word-spacing: 0px; -webkit-text-stroke-width: 0px; text-decoration: none;&quot;&gt;&lt;b&gt;&lt;span class=&quot;Apple-converted-space&quot;&gt;&amp;nbsp;&lt;/span&gt;\(\psi_F^i\)&lt;/b&gt;&lt;/i&gt;" style="text;whiteSpace=wrap;html=1;" vertex="1" parent="1">
          <mxGeometry x="332.43" y="330" width="38" height="41" as="geometry" />
        </mxCell>
        <UserObject label="" tags="连接线" id="kzMcMaSELKgusBH4qg8a-286">
          <mxCell style="vsdxID=374;edgeStyle=none;startArrow=none;endArrow=block;startSize=5;endSize=5;strokeWidth=3;strokeColor=#0070c0;spacingTop=0;spacingBottom=0;spacingLeft=0;spacingRight=0;verticalAlign=middle;html=1;labelBackgroundColor=#FFFFFF;rounded=0;entryX=0.508;entryY=0.027;entryDx=0;entryDy=0;exitX=0.44;exitY=0.928;exitDx=0;exitDy=0;exitPerimeter=0;entryPerimeter=0;" edge="1" parent="1" source="kzMcMaSELKgusBH4qg8a-270" target="kzMcMaSELKgusBH4qg8a-279">
            <mxGeometry relative="1" as="geometry">
              <mxPoint x="-1" as="offset" />
              <Array as="points" />
              <mxPoint x="374.43" y="329.76" as="sourcePoint" />
              <mxPoint x="373.43" y="409.76" as="targetPoint" />
            </mxGeometry>
          </mxCell>
        </UserObject>
        <mxCell id="kzMcMaSELKgusBH4qg8a-291" value="&lt;b style=&quot;caret-color: rgb(0, 0, 0); color: rgb(0, 0, 0); font-family: Helvetica; font-style: normal; font-variant-caps: normal; letter-spacing: normal; text-align: center; text-indent: 0px; text-transform: none; white-space: normal; word-spacing: 0px; -webkit-text-stroke-width: 0px; text-decoration: none;&quot;&gt;&lt;i&gt;&lt;font face=&quot;Times New Roman&quot;&gt;&lt;span class=&quot;Apple-converted-space&quot;&gt;&amp;nbsp;&lt;/span&gt;\(\alpha_u^i\)&lt;/font&gt;&lt;/i&gt;&lt;/b&gt;" style="text;whiteSpace=wrap;html=1;fontSize=23;" vertex="1" parent="1">
          <mxGeometry x="466.43" y="400" width="35.5" height="48.75" as="geometry" />
        </mxCell>
        <mxCell id="kzMcMaSELKgusBH4qg8a-292" value="&lt;b style=&quot;caret-color: rgb(0, 0, 0); color: rgb(0, 0, 0); font-family: Helvetica; font-style: normal; font-variant-caps: normal; letter-spacing: normal; text-align: center; text-indent: 0px; text-transform: none; white-space: normal; word-spacing: 0px; -webkit-text-stroke-width: 0px; text-decoration: none;&quot;&gt;&lt;i&gt;&lt;font face=&quot;Times New Roman&quot;&gt;\(\alpha_\psi^i\)&lt;/font&gt;&lt;/i&gt;&lt;/b&gt;" style="text;whiteSpace=wrap;html=1;fontSize=23;" vertex="1" parent="1">
          <mxGeometry x="453.31" y="435" width="30" height="30" as="geometry" />
        </mxCell>
        <mxCell id="kzMcMaSELKgusBH4qg8a-293" value="&lt;b style=&quot;caret-color: rgb(0, 0, 0); color: rgb(0, 0, 0); font-family: Helvetica; font-style: normal; font-variant-caps: normal; letter-spacing: normal; text-align: center; text-indent: 0px; text-transform: none; white-space: normal; word-spacing: 0px; -webkit-text-stroke-width: 0px; text-decoration: none;&quot;&gt;&lt;i&gt;&lt;font face=&quot;Times New Roman&quot;&gt;\(\alpha_r^i\)&lt;/font&gt;&lt;/i&gt;&lt;/b&gt;" style="text;whiteSpace=wrap;html=1;fontSize=23;" vertex="1" parent="1">
          <mxGeometry x="488.93" y="438.76" width="35" height="31" as="geometry" />
        </mxCell>
        <UserObject label="&lt;div&gt;&lt;font style=&quot;font-family: &amp;quot;Times New Roman&amp;quot;; direction: ltr; letter-spacing: 0px; line-height: 120%; opacity: 1; color: light-dark(rgb(255, 38, 0), rgb(237, 237, 237)); font-size: 24px;&quot;&gt;&lt;font style=&quot;letter-spacing: 0px; direction: ltr; line-height: 27.096001px; opacity: 1;&quot;&gt;&lt;i&gt;&lt;b&gt;\(i\)&lt;/b&gt;&lt;/i&gt;&lt;/font&gt;&lt;font face=&quot;Times New Roman&quot;&gt;&lt;span style=&quot;caret-color: rgb(255, 38, 0);&quot;&gt;&lt;b&gt;&lt;i&gt;th&amp;nbsp;&lt;/i&gt;&lt;/b&gt;&lt;/span&gt;&lt;/font&gt;&lt;i&gt;&lt;b&gt;Follower-USV&amp;nbsp;&lt;/b&gt;&lt;/i&gt;&lt;/font&gt;&lt;/div&gt;" tags="流程图" id="kzMcMaSELKgusBH4qg8a-294">
          <mxCell style="verticalAlign=middle;align=center;overflow=width;vsdxID=288;rotation=0;fillColor=#d5e8d4;shape=stencil(nZBLDoAgDERP0z3SIyjew0SURgSD+Lu9kMZoXLhwN9O+tukAlrNpJg1SzDH4QW/URgNYgZTkjA4UkwJUgGXng+6DX1zLfmoymdXo17xh5zmRJ6Q42BWCfc2oJfdAr+Yv+AP9Cb7OJ3H/2JG1HNGz/84klThPVCc=);strokeColor=#82b366;shadow=1;spacingTop=-1;spacingBottom=-1;spacingLeft=-1;spacingRight=-1;points=[[1,0.5,0],[0.5,0.5,0],[0.5,0,0]];labelBackgroundColor=none;rounded=0;html=1;whiteSpace=wrap;" vertex="1" parent="1">
            <mxGeometry x="62.43000000000001" y="620" width="706.51" height="30.01" as="geometry" />
          </mxCell>
        </UserObject>
        <mxCell id="kzMcMaSELKgusBH4qg8a-296" value="&lt;b style=&quot;caret-color: rgb(0, 0, 0); color: rgb(0, 0, 0); font-family: &amp;quot;Times New Roman&amp;quot;; font-style: normal; font-variant-caps: normal; letter-spacing: normal; text-align: center; text-indent: 0px; text-transform: none; white-space: normal; word-spacing: 0px; -webkit-text-stroke-width: 0px; text-decoration: none;&quot;&gt;&lt;i&gt;&lt;font style=&quot;font-size: 20px;&quot;&gt;&lt;span class=&quot;Apple-converted-space&quot;&gt;&amp;nbsp;&lt;/span&gt;\(\tau_u^i\)&lt;/font&gt;&lt;/i&gt;&lt;/b&gt;" style="text;whiteSpace=wrap;html=1;fontSize=23;" vertex="1" parent="1">
          <mxGeometry x="230.06" y="550" width="20" height="60" as="geometry" />
        </mxCell>
        <mxCell id="kzMcMaSELKgusBH4qg8a-297" value="&lt;b style=&quot;caret-color: rgb(0, 0, 0); color: rgb(0, 0, 0); font-family: &amp;quot;Times New Roman&amp;quot;; font-style: normal; font-variant-caps: normal; letter-spacing: normal; text-align: center; text-indent: 0px; text-transform: none; white-space: normal; word-spacing: 0px; -webkit-text-stroke-width: 0px; text-decoration: none;&quot;&gt;&lt;i&gt;&lt;font style=&quot;font-size: 20px;&quot;&gt;&lt;span class=&quot;Apple-converted-space&quot;&gt;&amp;nbsp;&lt;/span&gt;\(\tau_r^i\)&lt;/font&gt;&lt;/i&gt;&lt;/b&gt;" style="text;whiteSpace=wrap;html=1;" vertex="1" parent="1">
          <mxGeometry x="269.67999999999995" y="553.5" width="20" height="53" as="geometry" />
        </mxCell>
        <mxCell id="kzMcMaSELKgusBH4qg8a-298" value="" style="shape=sumEllipse;perimeter=ellipsePerimeter;whiteSpace=wrap;html=1;backgroundOutline=1;" vertex="1" parent="1">
          <mxGeometry x="538.9300000000001" y="430.26" width="20" height="17" as="geometry" />
        </mxCell>
        <UserObject label="" tags="连接线" id="kzMcMaSELKgusBH4qg8a-299">
          <mxCell style="vsdxID=374;edgeStyle=none;startArrow=none;endArrow=block;startSize=5;endSize=5;strokeWidth=3;strokeColor=#0070c0;spacingTop=0;spacingBottom=0;spacingLeft=0;spacingRight=0;verticalAlign=middle;html=1;labelBackgroundColor=#FFFFFF;rounded=0;entryX=0.284;entryY=0.067;entryDx=0;entryDy=0;entryPerimeter=0;" edge="1" parent="1" target="kzMcMaSELKgusBH4qg8a-294">
            <mxGeometry relative="1" as="geometry">
              <mxPoint x="-1" as="offset" />
              <Array as="points" />
              <mxPoint x="262.93" y="585.24" as="sourcePoint" />
              <mxPoint x="261.93" y="665.24" as="targetPoint" />
            </mxGeometry>
          </mxCell>
        </UserObject>
        <UserObject label="" tags="连接线" id="kzMcMaSELKgusBH4qg8a-301">
          <mxCell style="vsdxID=374;edgeStyle=none;startArrow=none;endArrow=block;startSize=5;endSize=5;strokeWidth=3;strokeColor=#0070c0;spacingTop=0;spacingBottom=0;spacingLeft=0;spacingRight=0;verticalAlign=middle;html=1;labelBackgroundColor=#FFFFFF;rounded=1;entryX=1;entryY=0.75;entryDx=0;entryDy=0;curved=0;" edge="1" parent="1" target="kzMcMaSELKgusBH4qg8a-280">
            <mxGeometry relative="1" as="geometry">
              <mxPoint x="-1" as="offset" />
              <Array as="points">
                <mxPoint x="652.9300000000001" y="570" />
              </Array>
              <mxPoint x="652.9300000000001" y="329.5" as="sourcePoint" />
              <mxPoint x="651.9300000000001" y="409.5" as="targetPoint" />
            </mxGeometry>
          </mxCell>
        </UserObject>
        <mxCell id="kzMcMaSELKgusBH4qg8a-302" value="&lt;i style=&quot;caret-color: rgb(0, 0, 0); color: rgb(0, 0, 0); font-family: &amp;quot;Times New Roman&amp;quot;; font-size: 18px; font-variant-caps: normal; font-weight: 400; letter-spacing: normal; text-align: center; text-indent: 0px; text-transform: none; white-space: normal; word-spacing: 0px; -webkit-text-stroke-width: 0px; text-decoration: none;&quot;&gt;&lt;b&gt;&lt;span class=&quot;Apple-converted-space&quot;&gt;&amp;nbsp;&lt;/span&gt;\(x_F^i\)&lt;/b&gt;&lt;/i&gt;" style="text;whiteSpace=wrap;html=1;" vertex="1" parent="1">
          <mxGeometry x="685.23" y="330" width="34.5" height="32" as="geometry" />
        </mxCell>
        <mxCell id="kzMcMaSELKgusBH4qg8a-303" value="&lt;i style=&quot;caret-color: rgb(0, 0, 0); color: rgb(0, 0, 0); font-family: &amp;quot;Times New Roman&amp;quot;; font-size: 18px; font-variant-caps: normal; font-weight: 400; letter-spacing: normal; text-align: center; text-indent: 0px; text-transform: none; white-space: normal; word-spacing: 0px; -webkit-text-stroke-width: 0px; text-decoration: none;&quot;&gt;&lt;b&gt;&lt;span class=&quot;Apple-converted-space&quot;&gt;&amp;nbsp;&lt;/span&gt;\(y_F^i\)&lt;/b&gt;&lt;/i&gt;" style="text;whiteSpace=wrap;html=1;" vertex="1" parent="1">
          <mxGeometry x="652.23" y="329" width="38" height="40" as="geometry" />
        </mxCell>
        <mxCell id="kzMcMaSELKgusBH4qg8a-304" value="&lt;i style=&quot;caret-color: rgb(0, 0, 0); color: rgb(0, 0, 0); font-family: &amp;quot;Times New Roman&amp;quot;; font-size: 18px; font-variant-caps: normal; font-weight: 400; letter-spacing: normal; text-align: center; text-indent: 0px; text-transform: none; white-space: normal; word-spacing: 0px; -webkit-text-stroke-width: 0px; text-decoration: none;&quot;&gt;&lt;b&gt;&lt;span class=&quot;Apple-converted-space&quot;&gt;&amp;nbsp;&lt;/span&gt;\(\psi_F^i\)&lt;/b&gt;&lt;/i&gt;" style="text;whiteSpace=wrap;html=1;" vertex="1" parent="1">
          <mxGeometry x="611.23" y="329.5" width="38" height="41" as="geometry" />
        </mxCell>
        <UserObject label="" tags="连接线" id="kzMcMaSELKgusBH4qg8a-305">
          <mxCell style="vsdxID=374;edgeStyle=none;startArrow=none;endArrow=block;startSize=5;endSize=5;strokeWidth=3;strokeColor=#0070c0;spacingTop=0;spacingBottom=0;spacingLeft=0;spacingRight=0;verticalAlign=middle;html=1;labelBackgroundColor=#FFFFFF;rounded=0;entryX=0.52;entryY=-0.078;entryDx=0;entryDy=0;exitX=0.689;exitY=0.991;exitDx=0;exitDy=0;exitPerimeter=0;entryPerimeter=0;" edge="1" parent="1" source="kzMcMaSELKgusBH4qg8a-270" target="kzMcMaSELKgusBH4qg8a-298">
            <mxGeometry relative="1" as="geometry">
              <mxPoint x="-1" as="offset" />
              <Array as="points" />
              <mxPoint x="548.34" y="346.26" as="sourcePoint" />
              <mxPoint x="548.34" y="430.26" as="targetPoint" />
            </mxGeometry>
          </mxCell>
        </UserObject>
        <mxCell id="kzMcMaSELKgusBH4qg8a-306" value="&lt;i style=&quot;caret-color: rgb(0, 0, 0); color: rgb(0, 0, 0); font-family: &amp;quot;Times New Roman&amp;quot;; font-size: 18px; font-variant-caps: normal; font-weight: 400; letter-spacing: normal; text-align: center; text-indent: 0px; text-transform: none; white-space: normal; word-spacing: 0px; -webkit-text-stroke-width: 0px; text-decoration: none;&quot;&gt;&lt;b&gt;&lt;span class=&quot;Apple-converted-space&quot;&gt;&amp;nbsp;&lt;/span&gt;\(u_F^i\)&lt;/b&gt;&lt;/i&gt;" style="text;whiteSpace=wrap;html=1;" vertex="1" parent="1">
          <mxGeometry x="515.5" y="330.5" width="34.5" height="32" as="geometry" />
        </mxCell>
        <mxCell id="kzMcMaSELKgusBH4qg8a-307" value="&lt;i style=&quot;caret-color: rgb(0, 0, 0); color: rgb(0, 0, 0); font-family: &amp;quot;Times New Roman&amp;quot;; font-size: 18px; font-variant-caps: normal; font-weight: 400; letter-spacing: normal; text-align: center; text-indent: 0px; text-transform: none; white-space: normal; word-spacing: 0px; -webkit-text-stroke-width: 0px; text-decoration: none;&quot;&gt;&lt;b&gt;&lt;span class=&quot;Apple-converted-space&quot;&gt;&amp;nbsp;&lt;/span&gt;\(\psi_F^i\)&lt;/b&gt;&lt;/i&gt;" style="text;whiteSpace=wrap;html=1;" vertex="1" parent="1">
          <mxGeometry x="550" y="330.5" width="34.5" height="32" as="geometry" />
        </mxCell>
        <mxCell id="kzMcMaSELKgusBH4qg8a-308" value="&lt;i style=&quot;caret-color: rgb(0, 0, 0); color: rgb(0, 0, 0); font-family: &amp;quot;Times New Roman&amp;quot;; font-size: 18px; font-variant-caps: normal; font-weight: 400; letter-spacing: normal; text-align: center; text-indent: 0px; text-transform: none; white-space: normal; word-spacing: 0px; -webkit-text-stroke-width: 0px; text-decoration: none;&quot;&gt;&lt;b&gt;&lt;span class=&quot;Apple-converted-space&quot;&gt;&amp;nbsp;&lt;/span&gt;\(r_F^i\)&lt;/b&gt;&lt;/i&gt;" style="text;whiteSpace=wrap;html=1;" vertex="1" parent="1">
          <mxGeometry x="515.5" y="360" width="34.5" height="32" as="geometry" />
        </mxCell>
        <mxCell id="kzMcMaSELKgusBH4qg8a-309" value="&lt;i style=&quot;caret-color: rgb(0, 0, 0); color: rgb(0, 0, 0); font-family: &amp;quot;Times New Roman&amp;quot;; font-size: 18px; font-variant-caps: normal; font-weight: 400; letter-spacing: normal; text-align: center; text-indent: 0px; text-transform: none; white-space: normal; word-spacing: 0px; -webkit-text-stroke-width: 0px; text-decoration: none;&quot;&gt;&lt;b&gt;&lt;span class=&quot;Apple-converted-space&quot;&gt;&amp;nbsp;&lt;/span&gt;\(u_e^i\)&lt;/b&gt;&lt;/i&gt;" style="text;whiteSpace=wrap;html=1;" vertex="1" parent="1">
          <mxGeometry x="558.93" y="403.5" width="34.5" height="32" as="geometry" />
        </mxCell>
        <mxCell id="kzMcMaSELKgusBH4qg8a-310" value="&lt;i style=&quot;caret-color: rgb(0, 0, 0); color: rgb(0, 0, 0); font-family: &amp;quot;Times New Roman&amp;quot;; font-size: 18px; font-variant-caps: normal; font-weight: 400; letter-spacing: normal; text-align: center; text-indent: 0px; text-transform: none; white-space: normal; word-spacing: 0px; -webkit-text-stroke-width: 0px; text-decoration: none;&quot;&gt;&lt;b&gt;&lt;span class=&quot;Apple-converted-space&quot;&gt;&amp;nbsp;&lt;/span&gt;\(\psi_e^i\)&lt;/b&gt;&lt;/i&gt;" style="text;whiteSpace=wrap;html=1;" vertex="1" parent="1">
          <mxGeometry x="558.93" y="460" width="34.5" height="32" as="geometry" />
        </mxCell>
        <mxCell id="kzMcMaSELKgusBH4qg8a-311" value="&lt;i style=&quot;caret-color: rgb(0, 0, 0); color: rgb(0, 0, 0); font-family: &amp;quot;Times New Roman&amp;quot;; font-size: 18px; font-variant-caps: normal; font-weight: 400; letter-spacing: normal; text-align: center; text-indent: 0px; text-transform: none; white-space: normal; word-spacing: 0px; -webkit-text-stroke-width: 0px; text-decoration: none;&quot;&gt;&lt;b&gt;&lt;span class=&quot;Apple-converted-space&quot;&gt;&amp;nbsp;&lt;/span&gt;\(r_e^i\)&lt;/b&gt;&lt;/i&gt;" style="text;whiteSpace=wrap;html=1;" vertex="1" parent="1">
          <mxGeometry x="558.93" y="433" width="34.5" height="32" as="geometry" />
        </mxCell>
        <UserObject label="" tags="连接线" id="kzMcMaSELKgusBH4qg8a-312">
          <mxCell style="vsdxID=250;edgeStyle=none;startArrow=none;endArrow=block;startSize=5;endSize=5;strokeWidth=3;strokeColor=#0070c0;spacingTop=0;spacingBottom=0;spacingLeft=0;spacingRight=0;verticalAlign=middle;html=1;labelBackgroundColor=#ffffff;rounded=1;exitX=1;exitY=0.5;exitDx=0;exitDy=0;entryX=1.001;entryY=0.311;entryDx=0;entryDy=0;entryPerimeter=0;curved=0;" edge="1" parent="1" source="kzMcMaSELKgusBH4qg8a-298" target="kzMcMaSELKgusBH4qg8a-280">
            <mxGeometry relative="1" as="geometry">
              <Array as="points">
                <mxPoint x="610" y="439" />
                <mxPoint x="610" y="540" />
              </Array>
              <mxPoint x="520" y="430" as="sourcePoint" />
              <mxPoint x="606" y="430" as="targetPoint" />
            </mxGeometry>
          </mxCell>
        </UserObject>
      </root>
    </mxGraphModel>
  </diagram>
</mxfile>
